
<svg xmlns="http://www.w3.org/2000/svg"
     xmlns:xlink="http://www.w3.org/1999/xlink" version="1.1" width="642"
     height="594">
    <defs/>
    <g transform=" scale(0.94) translate(-299.2,-459.19999999999993)">
        <rect x="592" y="512" width="96" height="80" rx="5.37" ry="5.37"
              fill="none" stroke="#000000" stroke-width="1.6"
              pointer-events="none"/>
        <g fill="#000" font-family="Arial,Helvetica" text-anchor="middle"
           font-size="19.200000000000003px">
            <text x="640" y="558.4">
                12V / 5V
            </text>
        </g>
        <rect x="592" y="688" width="96" height="80" rx="5.37" ry="5.37"
              fill="none" stroke="#000000" stroke-width="1.6"
              pointer-events="none"/>
        <g fill="#000" font-family="Arial,Helvetica" text-anchor="middle"
           font-size="19.200000000000003px">
            <text x="640" y="734.4">
                GPS
            </text>
        </g>
        <rect x="592" y="784" width="96" height="80" rx="5.37" ry="5.37"
              fill="none" stroke="#000000" stroke-width="1.6"
              pointer-events="none"/>
        <g fill="#000" font-family="Arial,Helvetica" text-anchor="middle"
           font-size="19.200000000000003px">
            <text x="640" y="830.4">
                IMU
            </text>
        </g>
        <rect x="592" y="880" width="96" height="80" rx="5.37" ry="5.37"
              fill="none" stroke="#000000" stroke-width="1.6"
              pointer-events="none"/>
        <g fill="#000" font-family="Arial,Helvetica" text-anchor="middle"
           font-size="19.200000000000003px">
            <text x="640" y="915.2">
                Position
            </text>
            <text x="640" y="937.6">
                sensor
            </text>
        </g>
        <rect x="880" y="688" width="96" height="80" rx="5.37" ry="5.37"
              fill="none" stroke="#000000" stroke-width="1.6"
              pointer-events="none"/>
        <g fill="#000" font-family="Arial,Helvetica" text-anchor="middle"
           font-size="19.200000000000003px">
            <text x="928" y="734.4">
                Camera
            </text>
        </g>
        <rect x="880" y="784" width="96" height="80" rx="5.37" ry="5.37"
              fill="none" stroke="#000000" stroke-width="1.6"
              pointer-events="none"/>
        <g fill="#000" font-family="Arial,Helvetica" text-anchor="middle"
           font-size="19.200000000000003px">
            <text x="928" y="830.4">
                Screen
            </text>
        </g>
        <rect x="736" y="592" width="96" height="368" rx="6.45" ry="6.45"
              fill="none" stroke="#000000" stroke-width="1.6"
              pointer-events="none"/>
        <g fill="#000" font-family="Arial,Helvetica" text-anchor="middle"
           font-size="19.200000000000003px">
            <text x="784" y="782.4">
                RPI
            </text>
        </g>
        <ellipse cx="920" cy="1048" rx="40" ry="40" fill="none" stroke="#000000"
                 stroke-width="1.6" pointer-events="none"/>
        <g fill="#000" font-family="Arial,Helvetica" text-anchor="middle"
           font-size="19.200000000000003px">
            <text x="920" y="1054.4">
                M
            </text>
        </g>
        <rect x="736" y="608" width="48" height="32" fill="none"
              stroke="#000000" stroke-width="1.6" pointer-events="none"/>
        <g fill="#000" font-family="Arial,Helvetica" text-anchor="middle"
           font-size="19.200000000000003px">
            <text x="760" y="630.4">
                5V
            </text>
        </g>
        <rect x="736" y="640" width="48" height="32" fill="none"
              stroke="#000000" stroke-width="1.6" pointer-events="none"/>
        <g fill="#000" font-family="Arial,Helvetica" text-anchor="middle"
           font-size="19.200000000000003px">
            <text x="760" y="662.4">
                3,3V
            </text>
        </g>
        <rect x="304" y="512" width="96" height="80" rx="5.37" ry="5.37"
              fill="none" stroke="#000000" stroke-width="1.6"
              pointer-events="none"/>
        <g fill="#000" font-family="Arial,Helvetica" text-anchor="middle"
           font-size="19.200000000000003px">
            <text x="352" y="536">
                220VAC
            </text>
            <text x="352" y="558.4">
                /
            </text>
            <text x="352" y="580.8">
                12VDC
            </text>
        </g>
        <path d="M 581.22 552 L 512 552 Q 496 552 480 552 L 400 552" fill="none"
              stroke="#000000" stroke-width="3.2" stroke-miterlimit="10"
              pointer-events="none"/>
        <path d="M 588.42 552 L 578.82 556.8 L 581.22 552 L 578.82 547.2 Z"
              fill="#000000" stroke="#000000" stroke-width="3.2"
              stroke-miterlimit="10" pointer-events="none"/>
        <path d="M 869.22 728 L 842.78 728" fill="none" stroke="#000000"
              stroke-width="3.2" stroke-miterlimit="10" pointer-events="none"/>
        <path d="M 876.42 728 L 866.82 732.8 L 869.22 728 L 866.82 723.2 Z"
              fill="#000000" stroke="#000000" stroke-width="3.2"
              stroke-miterlimit="10" pointer-events="none"/>
        <path d="M 835.58 728 L 845.18 723.2 L 842.78 728 L 845.18 732.8 Z"
              fill="#000000" stroke="#000000" stroke-width="3.2"
              stroke-miterlimit="10" pointer-events="none"/>
        <path d="M 869.22 824 L 842.78 824" fill="none" stroke="#000000"
              stroke-width="3.2" stroke-miterlimit="10" pointer-events="none"/>
        <path d="M 876.42 824 L 866.82 828.8 L 869.22 824 L 866.82 819.2 Z"
              fill="#000000" stroke="#000000" stroke-width="3.2"
              stroke-miterlimit="10" pointer-events="none"/>
        <path d="M 835.58 824 L 845.18 819.2 L 842.78 824 L 845.18 828.8 Z"
              fill="#000000" stroke="#000000" stroke-width="3.2"
              stroke-miterlimit="10" pointer-events="none"/>
        <path d="M 698.78 824 L 725.22 824" fill="none" stroke="#000000"
              stroke-width="3.2" stroke-miterlimit="10" pointer-events="none"/>
        <path d="M 691.58 824 L 701.18 819.2 L 698.78 824 L 701.18 828.8 Z"
              fill="#000000" stroke="#000000" stroke-width="3.2"
              stroke-miterlimit="10" pointer-events="none"/>
        <path d="M 732.42 824 L 722.82 828.8 L 725.22 824 L 722.82 819.2 Z"
              fill="#000000" stroke="#000000" stroke-width="3.2"
              stroke-miterlimit="10" pointer-events="none"/>
        <path d="M 640 592 L 640 608 Q 640 624 656 624 L 725.22 624" fill="none"
              stroke="#000000" stroke-width="3.2" stroke-miterlimit="10"
              pointer-events="none"/>
        <path d="M 732.42 624 L 722.82 628.8 L 725.22 624 L 722.82 619.2 Z"
              fill="#000000" stroke="#000000" stroke-width="3.2"
              stroke-miterlimit="10" pointer-events="none"/>
        <path d="M 736 656 L 560 656 Q 544 656 544 672 L 544 712 Q 544 728 560 728 L 581.22 728"
              fill="none" stroke="#000000" stroke-width="3.2"
              stroke-miterlimit="10" pointer-events="none"/>
        <path d="M 588.42 728 L 578.82 732.8 L 581.22 728 L 578.82 723.2 Z"
              fill="#000000" stroke="#000000" stroke-width="3.2"
              stroke-miterlimit="10" pointer-events="none"/>
        <path d="M 736 656 L 560 656 Q 544 656 544 672 L 544 808 Q 544 824 560 824 L 581.22 824"
              fill="none" stroke="#000000" stroke-width="3.2"
              stroke-miterlimit="10" pointer-events="none"/>
        <path d="M 588.42 824 L 578.82 828.8 L 581.22 824 L 578.82 819.2 Z"
              fill="#000000" stroke="#000000" stroke-width="3.2"
              stroke-miterlimit="10" pointer-events="none"/>
        <path d="M 736 656 L 560 656 Q 544 656 544 672 L 544 904 Q 544 920 560 920 L 581.22 920"
              fill="none" stroke="#000000" stroke-width="3.2"
              stroke-miterlimit="10" pointer-events="none"/>
        <path d="M 588.42 920 L 578.82 924.8 L 581.22 920 L 578.82 915.2 Z"
              fill="#000000" stroke="#000000" stroke-width="3.2"
              stroke-miterlimit="10" pointer-events="none"/>
        <path d="M 698.78 728 L 725.22 728" fill="none" stroke="#000000"
              stroke-width="3.2" stroke-miterlimit="10" pointer-events="none"/>
        <path d="M 691.58 728 L 701.18 723.2 L 698.78 728 L 701.18 732.8 Z"
              fill="#000000" stroke="#000000" stroke-width="3.2"
              stroke-miterlimit="10" pointer-events="none"/>
        <path d="M 732.42 728 L 722.82 732.8 L 725.22 728 L 722.82 723.2 Z"
              fill="#000000" stroke="#000000" stroke-width="3.2"
              stroke-miterlimit="10" pointer-events="none"/>
        <path d="M 688 920 L 725.22 920" fill="none" stroke="#000000"
              stroke-width="3.2" stroke-miterlimit="10" pointer-events="none"/>
        <path d="M 732.42 920 L 722.82 924.8 L 725.22 920 L 722.82 915.2 Z"
              fill="#000000" stroke="#000000" stroke-width="3.2"
              stroke-miterlimit="10" pointer-events="none"/>
        <path d="M 448 464 L 432 464 L 432 636.8 L 448 636.8" fill="none"
              stroke="#000000" stroke-width="1.6" stroke-miterlimit="10"
              transform="rotate(180,440,550.4)" pointer-events="none"/>
        <rect x="736" y="1008" width="96" height="80" rx="5.37" ry="5.37"
              fill="none" stroke="#000000" stroke-width="1.6"
              pointer-events="none"/>
        <g fill="#000" font-family="Arial,Helvetica" text-anchor="middle"
           font-size="19.200000000000003px">
            <text x="784" y="1054.4">
                Controller
            </text>
        </g>
        <path d="M 736 656 L 560 656 Q 544 656 544 672 L 544 1024 Q 544 1040 560 1040 L 725.22 1040"
              fill="none" stroke="#000000" stroke-width="3.2"
              stroke-miterlimit="10" pointer-events="none"/>
        <path d="M 732.42 1040 L 722.82 1044.8 L 725.22 1040 L 722.82 1035.2 Z"
              fill="#000000" stroke="#000000" stroke-width="3.2"
              stroke-miterlimit="10" pointer-events="none"/>
        <path d="M 784 960 L 784 997.22" fill="none" stroke="#000000"
              stroke-width="3.2" stroke-miterlimit="10" pointer-events="none"/>
        <path d="M 784 1004.42 L 779.2 994.82 L 784 997.22 L 788.8 994.82 Z"
              fill="#000000" stroke="#000000" stroke-width="3.2"
              stroke-miterlimit="10" pointer-events="none"/>
        <path d="M 832 1048 L 869.22 1048" fill="none" stroke="#000000"
              stroke-width="3.2" stroke-miterlimit="10" pointer-events="none"/>
        <path d="M 876.42 1048 L 866.82 1052.8 L 869.22 1048 L 866.82 1043.2 Z"
              fill="#000000" stroke="#000000" stroke-width="3.2"
              stroke-miterlimit="10" pointer-events="none"/>
        <path d="M 400 552 L 480 552 Q 496 552 496 568 L 496 1040 Q 496 1056 512 1056 L 725.22 1056"
              fill="none" stroke="#000000" stroke-width="3.2"
              stroke-miterlimit="10" pointer-events="none"/>
        <path d="M 732.42 1056 L 722.82 1060.8 L 725.22 1056 L 722.82 1051.2 Z"
              fill="#000000" stroke="#000000" stroke-width="3.2"
              stroke-miterlimit="10" pointer-events="none"/>
    </g>
</svg>