<?xml version="1.0" encoding="UTF-8" standalone="no"?>
<svg
   xmlns:dc="http://purl.org/dc/elements/1.1/"
   xmlns:cc="http://creativecommons.org/ns#"
   xmlns:rdf="http://www.w3.org/1999/02/22-rdf-syntax-ns#"
   xmlns:svg="http://www.w3.org/2000/svg"
   xmlns="http://www.w3.org/2000/svg"
   xmlns:sodipodi="http://sodipodi.sourceforge.net/DTD/sodipodi-0.dtd"
   xmlns:inkscape="http://www.inkscape.org/namespaces/inkscape"
   version="1.1"
   width="1068"
   height="626"
   id="svg238"
   sodipodi:docname="sch_functionnal.svg"
   inkscape:version="0.92.3 (2405546, 2018-03-11)">
  <metadata
     id="metadata242">
    <rdf:RDF>
      <cc:Work
         rdf:about="">
        <dc:format>image/svg+xml</dc:format>
        <dc:type
           rdf:resource="http://purl.org/dc/dcmitype/StillImage" />
        <dc:title></dc:title>
      </cc:Work>
    </rdf:RDF>
  </metadata>
  <sodipodi:namedview
     pagecolor="#ffffff"
     bordercolor="#666666"
     borderopacity="1"
     objecttolerance="10"
     gridtolerance="10"
     guidetolerance="10"
     inkscape:pageopacity="0"
     inkscape:pageshadow="2"
     inkscape:window-width="1920"
     inkscape:window-height="1001"
     id="namedview240"
     showgrid="false"
     inkscape:zoom="0.53315399"
     inkscape:cx="155.84135"
     inkscape:cy="213.0365"
     inkscape:window-x="0"
     inkscape:window-y="27"
     inkscape:window-maximized="1"
     inkscape:current-layer="svg238" />
  <defs
     id="defs2" />
  <g
     transform=" scale(0.94) translate(-331.2,-459.2)"
     id="g236">
    <rect
       x="688"
       y="592"
       width="208"
       height="320"
       rx="13.97"
       ry="13.97"
       fill="none"
       stroke="#000000"
       stroke-width="1.6"
       pointer-events="none"
       id="rect4" />
    <g
       fill="#000"
       font-family="Arial,Helvetica"
       text-anchor="middle"
       font-size="19.200000000000003px"
       id="g10">
      <text
         x="792"
         y="747.2"
         id="text6">
                Raspberry
            </text>
      <text
         x="792"
         y="769.6"
         id="text8">
                Pi 3 B
            </text>
    </g>
    <rect
       x="960"
       y="592"
       width="208"
       height="320"
       rx="13.97"
       ry="13.97"
       fill="none"
       stroke="#000000"
       stroke-width="1.6"
       pointer-events="none"
       id="rect12" />
    <ellipse
       cx="1240"
       cy="632"
       rx="24"
       ry="24"
       fill="none"
       stroke="#000000"
       stroke-width="1.6"
       pointer-events="none"
       id="ellipse14" />
    <g
       fill="#000"
       font-family="Arial,Helvetica"
       text-anchor="middle"
       font-size="19.200000000000003px"
       id="g18">
      <text
         x="1240"
         y="638.4"
         id="text16">
                M
            </text>
    </g>
    <ellipse
       cx="1240"
       cy="696"
       rx="24"
       ry="24"
       fill="none"
       stroke="#000000"
       stroke-width="1.6"
       pointer-events="none"
       id="ellipse20" />
    <g
       fill="#000"
       font-family="Arial,Helvetica"
       text-anchor="middle"
       font-size="19.200000000000003px"
       id="g24">
      <text
         x="1240"
         y="702.4"
         id="text22">
                M
            </text>
    </g>
    <rect
       x="1056"
       y="608"
       width="96"
       height="48"
       rx="3.22"
       ry="3.22"
       fill="none"
       stroke="#000000"
       stroke-width="1.6"
       pointer-events="none"
       id="rect26" />
    <g
       fill="#000"
       font-family="Arial,Helvetica"
       text-anchor="middle"
       font-size="19.200000000000003px"
       id="g30">
      <text
         x="1104"
         y="638.4"
         id="text28">
                Controller
            </text>
    </g>
    <rect
       x="1056"
       y="672"
       width="96"
       height="48"
       rx="3.22"
       ry="3.22"
       fill="none"
       stroke="#000000"
       stroke-width="1.6"
       pointer-events="none"
       id="rect32" />
    <g
       fill="#000"
       font-family="Arial,Helvetica"
       text-anchor="middle"
       font-size="19.200000000000003px"
       id="g36">
      <text
         x="1104"
         y="702.4"
         id="text34">
                Controller
            </text>
    </g>
    <rect
       x="976"
       y="848"
       width="176"
       height="48"
       rx="3.22"
       ry="3.22"
       fill="none"
       stroke="#000000"
       stroke-width="1.6"
       pointer-events="none"
       id="rect38" />
    <g
       fill="#000"
       font-family="Arial,Helvetica"
       text-anchor="middle"
       font-size="19.200000000000003px"
       id="g42">
      <text
         x="1064"
         y="878.4"
         id="text40">
                DC/DC
            </text>
    </g>
    <rect
       x="1024"
       y="944"
       width="80"
       height="48"
       rx="3.22"
       ry="3.22"
       fill="none"
       stroke="#000000"
       stroke-width="1.6"
       pointer-events="none"
       id="rect44" />
    <g
       fill="#000"
       font-family="Arial,Helvetica"
       text-anchor="middle"
       font-size="19.200000000000003px"
       id="g48">
      <text
         x="1064"
         y="974.4"
         id="text46">
                AC/DC
            </text>
    </g>
    <rect
       x="736"
       y="464"
       width="112"
       height="80"
       rx="5.37"
       ry="5.37"
       fill="none"
       stroke="#000000"
       stroke-width="1.6"
       pointer-events="none"
       id="rect50" />
    <g
       fill="#000"
       font-family="Arial,Helvetica"
       text-anchor="middle"
       font-size="19.200000000000003px"
       id="g54">
      <text
         x="792"
         y="510.4"
         id="text52">
                Camera
            </text>
    </g>
    <rect
       x="496"
       y="608"
       width="112"
       height="80"
       rx="5.37"
       ry="5.37"
       fill="none"
       stroke="#000000"
       stroke-width="1.6"
       pointer-events="none"
       id="rect56" />
    <g
       fill="#000"
       font-family="Arial,Helvetica"
       text-anchor="middle"
       font-size="19.200000000000003px"
       id="g62">
      <text
         x="552"
         y="643.2"
         id="text58">
                Touch
            </text>
      <text
         x="552"
         y="665.6"
         id="text60">
                screen
            </text>
    </g>
    <path
       d="M 1163.31 952 L 1163.31 958.88 L 1160 958.88 L 1160 966.06 L 1161.32 966.06 L 1161.32 972.19 C 1161.32 976 1163.38 979.06 1165.93 979.06 L 1167.33 979.06 L 1167.33 984 L 1168.67 984 L 1168.67 979.06 L 1170.07 979.06 C 1172.62 979.06 1174.68 976 1174.68 972.19 L 1174.68 966.06 L 1176 966.06 L 1176 958.88 L 1172.69 958.88 L 1172.69 952 L 1169.34 952 L 1169.34 958.88 L 1166.66 958.88 L 1166.66 952 L 1163.31 952 Z M 1164.65 954.06 L 1165.32 954.06 L 1165.32 959.06 L 1164.65 959.06 L 1164.65 954.06 Z M 1170.68 954.06 L 1171.35 954.06 L 1171.35 959.06 L 1170.68 959.06 L 1170.68 954.06 Z M 1161.3 961 L 1174.7 961 L 1174.7 964.13 L 1161.3 964.13 L 1161.3 961 Z M 1162.6 965.06 L 1165.61 965.06 L 1170.39 965.06 L 1173.4 965.06 L 1173.4 970.06 L 1173.4 972.13 L 1173.4 972.44 L 1173.38 972.44 C 1173.27 975.06 1171.84 977.13 1170.05 977.13 L 1165.95 977.13 C 1164.16 977.13 1162.73 975.06 1162.62 972.44 L 1162.6 972.44 L 1162.6 972.13 L 1162.6 970.06 L 1162.6 965.06 Z"
       fill="#000000"
       stroke="none"
       transform="rotate(90,1168,968)"
       pointer-events="none"
       id="path64" />
    <path
       d="M 1165.6 977.07 C 1164.81 976.96 1164.06 976.39 1163.51 975.5 C 1163.1 974.84 1162.84 974.08 1162.69 973.12 C 1162.64 972.77 1162.63 972.64 1162.62 968.92 L 1162.62 965.07 L 1168 965.07 L 1173.38 965.07 L 1173.38 968.92 C 1173.37 972.64 1173.36 972.77 1173.31 973.12 C 1172.99 975.19 1172 976.63 1170.61 977.04 C 1170.42 977.1 1165.96 977.13 1165.6 977.07 L 1165.6 977.07 Z"
       fill="#ffffff"
       stroke="#000000"
       stroke-width="1.6"
       stroke-linejoin="bevel"
       stroke-linecap="round"
       stroke-miterlimit="10"
       transform="rotate(90,1168,968)"
       pointer-events="none"
       id="path66" />
    <path
       d="M 1165.39 977.02 C 1164.94 976.9 1164.45 976.6 1164.08 976.22 C 1163.84 975.98 1163.41 975.34 1163.25 974.99 C 1162.89 974.23 1162.69 973.36 1162.66 972.5 C 1162.65 972.26 1162.64 970.5 1162.63 968.57 L 1162.61 965.07 L 1168 965.07 L 1173.38 965.07 L 1173.37 968.73 C 1173.36 970.75 1173.34 972.56 1173.33 972.76 C 1173.29 973.23 1173.2 973.73 1173.04 974.22 C 1172.64 975.52 1171.94 976.42 1171 976.88 C 1170.76 976.99 1170.68 977.01 1170.28 977.04 C 1170.04 977.06 1168.88 977.07 1167.72 977.07 C 1166.04 977.07 1165.55 977.06 1165.39 977.02 Z"
       fill="#ffffff"
       stroke="#000000"
       stroke-width="1.6"
       stroke-linejoin="bevel"
       stroke-linecap="round"
       stroke-miterlimit="10"
       transform="rotate(90,1168,968)"
       pointer-events="none"
       id="path68" />
    <path
       d="M 1161.31 962.56 L 1161.31 961.02 L 1168 961.02 L 1174.69 961.02 L 1174.69 962.56 L 1174.69 964.1 L 1168 964.1 L 1161.31 964.1 L 1161.31 962.56 Z"
       fill="#ffffff"
       stroke="#000000"
       stroke-width="1.6"
       stroke-linejoin="bevel"
       stroke-linecap="round"
       stroke-miterlimit="10"
       transform="rotate(90,1168,968)"
       pointer-events="none"
       id="path70" />
    <path
       d="M 1164.66 956.55 L 1164.66 954.08 L 1164.98 954.08 L 1165.31 954.08 L 1165.31 956.55 L 1165.31 959.03 L 1164.98 959.03 L 1164.66 959.03 L 1164.66 956.55 Z"
       fill="#ffffff"
       stroke="#000000"
       stroke-width="1.6"
       stroke-linejoin="bevel"
       stroke-linecap="round"
       stroke-miterlimit="10"
       transform="rotate(90,1168,968)"
       pointer-events="none"
       id="path72" />
    <path
       d="M 1170.69 956.55 L 1170.69 954.08 L 1171.02 954.08 L 1171.34 954.08 L 1171.34 956.55 L 1171.34 959.03 L 1171.02 959.03 L 1170.69 959.03 L 1170.69 956.55 Z"
       fill="#ffffff"
       stroke="#000000"
       stroke-width="1.6"
       stroke-linejoin="bevel"
       stroke-linecap="round"
       stroke-miterlimit="10"
       transform="rotate(90,1168,968)"
       pointer-events="none"
       id="path74" />
    <path
       d="M 1152 968 L 1104 968"
       fill="none"
       stroke="#000000"
       stroke-width="3.2"
       stroke-miterlimit="10"
       pointer-events="none"
       id="path76" />
    <path
       d="M 1064 944 L 1064 896"
       fill="none"
       stroke="#000000"
       stroke-width="3.2"
       stroke-miterlimit="10"
       pointer-events="none"
       id="path78" />
    <path
       d="M 949.22 752 L 906.78 752"
       fill="none"
       stroke="#000000"
       stroke-width="3.2"
       stroke-miterlimit="10"
       pointer-events="none"
       id="path80" />
    <path
       d="M 956.42 752 L 946.82 756.8 L 949.22 752 L 946.82 747.2 Z"
       fill="#000000"
       stroke="#000000"
       stroke-width="3.2"
       stroke-miterlimit="10"
       pointer-events="none"
       id="path82" />
    <path
       d="M 899.58 752 L 909.18 747.2 L 906.78 752 L 909.18 756.8 Z"
       fill="#000000"
       stroke="#000000"
       stroke-width="3.2"
       stroke-miterlimit="10"
       pointer-events="none"
       id="path84" />
    <path
       d="M 1205.22 696 L 1152 696"
       fill="none"
       stroke="#000000"
       stroke-width="3.2"
       stroke-miterlimit="10"
       pointer-events="none"
       id="path86" />
    <path
       d="M 1212.42 696 L 1202.82 700.8 L 1205.22 696 L 1202.82 691.2 Z"
       fill="#000000"
       stroke="#000000"
       stroke-width="3.2"
       stroke-miterlimit="10"
       pointer-events="none"
       id="path88" />
    <path
       d="M 1205.22 632 L 1152 632"
       fill="none"
       stroke="#000000"
       stroke-width="3.2"
       stroke-miterlimit="10"
       pointer-events="none"
       id="path90" />
    <path
       d="M 1212.42 632 L 1202.82 636.8 L 1205.22 632 L 1202.82 627.2 Z"
       fill="#000000"
       stroke="#000000"
       stroke-width="3.2"
       stroke-miterlimit="10"
       pointer-events="none"
       id="path92" />
    <rect
       x="1296"
       y="672"
       width="80"
       height="48"
       rx="3.22"
       ry="3.22"
       fill="none"
       stroke="#000000"
       stroke-width="1.6"
       pointer-events="none"
       id="rect94" />
    <g
       fill="#000"
       font-family="Arial,Helvetica"
       text-anchor="middle"
       font-size="19.200000000000003px"
       id="g100">
      <text
         x="1336"
         y="691.2"
         id="text96">
                Position
            </text>
      <text
         x="1336"
         y="713.6"
         id="text98">
                sensor
            </text>
    </g>
    <rect
       x="1296"
       y="608"
       width="80"
       height="48"
       rx="3.22"
       ry="3.22"
       fill="none"
       stroke="#000000"
       stroke-width="1.6"
       pointer-events="none"
       id="rect102" />
    <g
       fill="#000"
       font-family="Arial,Helvetica"
       text-anchor="middle"
       font-size="19.200000000000003px"
       id="g108">
      <text
         x="1336"
         y="627.2"
         id="text104">
                Position
            </text>
      <text
         x="1336"
         y="649.6"
         id="text106">
                sensor
            </text>
    </g>
    <path
       d="M 792 544 L 792 581.22"
       fill="none"
       stroke="#000000"
       stroke-width="3.2"
       stroke-miterlimit="10"
       pointer-events="none"
       id="path110" />
    <path
       d="M 792 588.42 L 787.2 578.82 L 792 581.22 L 796.8 578.82 Z"
       fill="#000000"
       stroke="#000000"
       stroke-width="3.2"
       stroke-miterlimit="10"
       pointer-events="none"
       id="path112" />
    <path
       d="M 618.78 648 L 677.22 648"
       fill="none"
       stroke="#000000"
       stroke-width="3.2"
       stroke-miterlimit="10"
       pointer-events="none"
       id="path114" />
    <path
       d="M 611.58 648 L 621.18 643.2 L 618.78 648 L 621.18 652.8 Z"
       fill="#000000"
       stroke="#000000"
       stroke-width="3.2"
       stroke-miterlimit="10"
       pointer-events="none"
       id="path116" />
    <path
       d="M 684.42 648 L 674.82 652.8 L 677.22 648 L 674.82 643.2 Z"
       fill="#000000"
       stroke="#000000"
       stroke-width="3.2"
       stroke-miterlimit="10"
       pointer-events="none"
       id="path118" />
    <path
       d="M 1376 696 L 1392 696 Q 1408 696 1408 712 L 1408 800 Q 1408 816 1392 816 L 1178.78 816"
       fill="none"
       stroke="#000000"
       stroke-width="3.2"
       stroke-miterlimit="10"
       pointer-events="none"
       id="path120" />
    <path
       d="M 1171.58 816 L 1181.18 811.2 L 1178.78 816 L 1181.18 820.8 Z"
       fill="#000000"
       stroke="#000000"
       stroke-width="3.2"
       stroke-miterlimit="10"
       pointer-events="none"
       id="path122" />
    <path
       d="M 1376 632 L 1408 632 Q 1424 632 1424 648 L 1424 816 Q 1424 832 1408 832 L 1178.78 832"
       fill="none"
       stroke="#000000"
       stroke-width="3.2"
       stroke-miterlimit="10"
       pointer-events="none"
       id="path124" />
    <path
       d="M 1171.58 832 L 1181.18 827.2 L 1178.78 832 L 1181.18 836.8 Z"
       fill="#000000"
       stroke="#000000"
       stroke-width="3.2"
       stroke-miterlimit="10"
       pointer-events="none"
       id="path126" />
    <ellipse
       cx="368"
       cy="576"
       rx="16"
       ry="16"
       fill="none"
       stroke="#000000"
       stroke-width="1.6"
       pointer-events="none"
       id="ellipse128" />
    <path
       d="M 368 592 L 368 645.33 M 368 602.67 L 336 602.67 M 368 602.67 L 400 602.67 M 368 645.33 L 336 688 M 368 645.33 L 400 688"
       fill="none"
       stroke="#000000"
       stroke-width="1.6"
       stroke-miterlimit="10"
       pointer-events="none"
       id="path130" />
    <ellipse
       cx="496"
       cy="968"
       rx="160"
       ry="152"
       fill="none"
       stroke="#000000"
       stroke-width="1.6"
       transform="rotate(180,496,968)"
       pointer-events="none"
       id="ellipse132" />
    <g
       fill="#000"
       font-family="Arial,Helvetica"
       text-anchor="middle"
       font-size="19.200000000000003px"
       id="g136">
      <text
         x="496"
         y="974.4"
         id="text134">
                Network
            </text>
    </g>
    <rect
       x="464"
       y="864"
       width="80"
       height="48"
       rx="3.22"
       ry="3.22"
       fill="none"
       stroke="#000000"
       stroke-width="1.6"
       pointer-events="none"
       id="rect138" />
    <g
       fill="#000"
       font-family="Arial,Helvetica"
       text-anchor="middle"
       font-size="19.200000000000003px"
       id="g142">
      <text
         x="504"
         y="894.4"
         id="text140">
                https
            </text>
    </g>
    <rect
       x="544"
       y="944"
       width="80"
       height="48"
       rx="3.22"
       ry="3.22"
       fill="none"
       stroke="#000000"
       stroke-width="1.6"
       pointer-events="none"
       id="rect144" />
    <g
       fill="#000"
       font-family="Arial,Helvetica"
       text-anchor="middle"
       font-size="19.200000000000003px"
       id="g148">
      <text
         x="584"
         y="974.4"
         id="text146">
                ssh
            </text>
    </g>
    <path
       d="M 666.78 968 L 776 968 Q 792 968 792 952 L 792 922.78"
       fill="none"
       stroke="#000000"
       stroke-width="3.2"
       stroke-miterlimit="10"
       pointer-events="none"
       id="path150" />
    <path
       d="M 659.58 968 L 669.18 963.2 L 666.78 968 L 669.18 972.8 Z"
       fill="#000000"
       stroke="#000000"
       stroke-width="3.2"
       stroke-miterlimit="10"
       pointer-events="none"
       id="path152" />
    <path
       d="M 792 915.58 L 796.8 925.18 L 792 922.78 L 787.2 925.18 Z"
       fill="#000000"
       stroke="#000000"
       stroke-width="3.2"
       stroke-miterlimit="10"
       pointer-events="none"
       id="path154" />
    <g
       fill="#000000"
       font-family="Arial,Helvetica"
       text-anchor="middle"
       font-size="17.6px"
       id="g162">
      <text
         x="752"
         y="987.2"
         id="text158">
                Wifi
            </text>
      <text
         x="752"
         y="1008"
         id="text160">
                Ethernet
            </text>
    </g>
    <rect
       x="352"
       y="752"
       width="96"
       height="48"
       rx="3.22"
       ry="3.22"
       fill="none"
       stroke="#000000"
       stroke-width="1.6"
       pointer-events="none"
       id="rect164" />
    <g
       fill="#000"
       font-family="Arial,Helvetica"
       text-anchor="middle"
       font-size="19.200000000000003px"
       id="g168">
      <text
         x="400"
         y="782.4"
         id="text166">
                Computer
            </text>
    </g>
    <path
       d="M 383.69 698.55 L 392.73 741.45"
       fill="none"
       stroke="#000000"
       stroke-width="3.2"
       stroke-miterlimit="10"
       pointer-events="none"
       id="path170" />
    <path
       d="M 382.21 691.5 L 388.89 699.91 L 383.69 698.55 L 379.49 701.88 Z"
       fill="#000000"
       stroke="#000000"
       stroke-width="3.2"
       stroke-miterlimit="10"
       pointer-events="none"
       id="path172" />
    <path
       d="M 394.21 748.5 L 387.54 740.09 L 392.73 741.45 L 396.93 738.12 Z"
       fill="#000000"
       stroke="#000000"
       stroke-width="3.2"
       stroke-miterlimit="10"
       pointer-events="none"
       id="path174" />
    <path
       d="M 410.69 629.57 L 485.31 639.3"
       fill="none"
       stroke="#000000"
       stroke-width="3.2"
       stroke-miterlimit="10"
       pointer-events="none"
       id="path176" />
    <path
       d="M 403.55 628.64 L 413.69 625.12 L 410.69 629.57 L 412.45 634.64 Z"
       fill="#000000"
       stroke="#000000"
       stroke-width="3.2"
       stroke-miterlimit="10"
       pointer-events="none"
       id="path178" />
    <path
       d="M 492.45 640.23 L 482.31 643.75 L 485.31 639.3 L 483.55 634.23 Z"
       fill="#000000"
       stroke="#000000"
       stroke-width="3.2"
       stroke-miterlimit="10"
       pointer-events="none"
       id="path180" />
    <path
       d="M 458.78 776 L 480 776 Q 496 776 496 790.61 L 496 805.22"
       fill="none"
       stroke="#000000"
       stroke-width="3.2"
       stroke-miterlimit="10"
       pointer-events="none"
       id="path182" />
    <path
       d="M 451.58 776 L 461.18 771.2 L 458.78 776 L 461.18 780.8 Z"
       fill="#000000"
       stroke="#000000"
       stroke-width="3.2"
       stroke-miterlimit="10"
       pointer-events="none"
       id="path184" />
    <path
       d="M 496 812.42 L 491.2 802.82 L 496 805.22 L 500.8 802.82 Z"
       fill="#000000"
       stroke="#000000"
       stroke-width="3.2"
       stroke-miterlimit="10"
       pointer-events="none"
       id="path186" />
    <rect
       x="960"
       y="464"
       width="96"
       height="80"
       rx="5.37"
       ry="5.37"
       fill="none"
       stroke="#000000"
       stroke-width="1.6"
       pointer-events="none"
       id="rect188" />
    <g
       fill="#000"
       font-family="Arial,Helvetica"
       text-anchor="middle"
       font-size="19.200000000000003px"
       id="g192">
      <text
         x="1008"
         y="510.4"
         id="text190">
                GPS
            </text>
    </g>
    <rect
       x="1072"
       y="464"
       width="96"
       height="80"
       rx="5.37"
       ry="5.37"
       fill="none"
       stroke="#000000"
       stroke-width="1.6"
       pointer-events="none"
       id="rect194" />
    <g
       fill="#000"
       font-family="Arial,Helvetica"
       text-anchor="middle"
       font-size="19.200000000000003px"
       id="g198">
      <text
         x="1120"
         y="510.4"
         id="text196">
                IMU
            </text>
    </g>
    <path
       d="M 1120 544 L 1120 552 Q 1120 560 1120 570.61 L 1120 581.22"
       fill="none"
       stroke="#000000"
       stroke-width="3.2"
       stroke-miterlimit="10"
       pointer-events="none"
       id="path200" />
    <path
       d="M 1120 588.42 L 1115.2 578.82 L 1120 581.22 L 1124.8 578.82 Z"
       fill="#000000"
       stroke="#000000"
       stroke-width="3.2"
       stroke-miterlimit="10"
       pointer-events="none"
       id="path202" />
    <path
       d="M 1008 544 L 1008 552 Q 1008 560 1008 570.61 L 1008 581.22"
       fill="none"
       stroke="#000000"
       stroke-width="3.2"
       stroke-miterlimit="10"
       pointer-events="none"
       id="path204" />
    <path
       d="M 1008 588.42 L 1003.2 578.82 L 1008 581.22 L 1012.8 578.82 Z"
       fill="#000000"
       stroke="#000000"
       stroke-width="3.2"
       stroke-miterlimit="10"
       pointer-events="none"
       id="path206" />
    <ellipse
       cx="1240"
       cy="760"
       rx="24"
       ry="24"
       fill="none"
       stroke="#000000"
       stroke-width="1.6"
       pointer-events="none"
       id="ellipse208" />
    <g
       fill="#000"
       font-family="Arial,Helvetica"
       text-anchor="middle"
       font-size="19.200000000000003px"
       id="g212">
      <text
         x="1240"
         y="766.4"
         id="text210">
                M
            </text>
    </g>
    <rect
       x="1056"
       y="736"
       width="96"
       height="48"
       rx="3.22"
       ry="3.22"
       fill="none"
       stroke="#000000"
       stroke-width="1.6"
       pointer-events="none"
       id="rect214" />
    <g
       fill="#000"
       font-family="Arial,Helvetica"
       text-anchor="middle"
       font-size="19.200000000000003px"
       id="g218">
      <text
         x="1104"
         y="766.4"
         id="text216">
                Controller
            </text>
    </g>
    <path
       d="M 1205.22 760 L 1152 760"
       fill="none"
       stroke="#000000"
       stroke-width="3.2"
       stroke-miterlimit="10"
       pointer-events="none"
       id="path220" />
    <path
       d="M 1212.42 760 L 1202.82 764.8 L 1205.22 760 L 1202.82 755.2 Z"
       fill="#000000"
       stroke="#000000"
       stroke-width="3.2"
       stroke-miterlimit="10"
       pointer-events="none"
       id="path222" />
    <rect
       x="1296"
       y="736"
       width="80"
       height="48"
       rx="3.22"
       ry="3.22"
       fill="none"
       stroke="#000000"
       stroke-width="1.6"
       pointer-events="none"
       id="rect224" />
    <g
       fill="#000"
       font-family="Arial,Helvetica"
       text-anchor="middle"
       font-size="19.200000000000003px"
       id="g230">
      <text
         x="1336"
         y="755.2"
         id="text226">
                Position
            </text>
      <text
         x="1336"
         y="777.6"
         id="text228">
                sensor
            </text>
    </g>
    <path
       d="M 1376 760 L 1384 760 Q 1392 760 1392 776 L 1392 788 Q 1392 800 1376 800 L 1178.78 800"
       fill="none"
       stroke="#000000"
       stroke-width="3.2"
       stroke-miterlimit="10"
       pointer-events="none"
       id="path232" />
    <path
       d="M 1171.58 800 L 1181.18 795.2 L 1178.78 800 L 1181.18 804.8 Z"
       fill="#000000"
       stroke="#000000"
       stroke-width="3.2"
       stroke-miterlimit="10"
       pointer-events="none"
       id="path234" />
  </g>
  <path
     inkscape:connector-curvature="0"
     style="fill:none;stroke:#000000;stroke-width:3.00800014;stroke-miterlimit:10"
     d="m 777.20831,478.272 h -45.12"
     stroke-miterlimit="10"
     pointer-events="none"
     id="path76-3" />
</svg>
